# xmcd
#
# Track frame offsets: 
#        150
#        16641
#        35650
#        65118
#        88120
#        109373
#        132514
#        151316
#        184607
#        213633
#        227275
#
# Disc length: 3604 seconds
#
# Revision: 0
# Processed by: cddbd v1.5.2PL0 Copyright (c) Steve Scherf et al.
# Submitted via: ExactAudioCopyFreeDBPlugin 1.0
#
DISCID=930e120b
DTITLE=Eric Clapton - LIVE IN LONDON
DYEAR=1985
DGENRE=Blues
TTITLE0=TULSA TIME
TTITLE1=MOTHERLESS CHILDREN
TTITLE2=I SHOT THE SHERIFF
TTITLE3=BLUES POWER
TTITLE4=TANGLED IN LOVE
TTITLE5=LAY DOWN SALLY
TTITLE6=BADGE
TTITLE7=LET IT RAIN
TTITLE8=COCAINE
TTITLE9=FOREVER MAN
TTITLE10=LAYLA
EXTD=
EXTT0=
EXTT1=
EXTT2=
EXTT3=
EXTT4=
EXTT5=
EXTT6=
EXTT7=
EXTT8=
EXTT9=
EXTT10=
PLAYORDER=
